<?xml version="1.0" encoding="iso-8859-1"?>
<!-- Generator: Adobe Illustrator 23.0.1, SVG Export Plug-In . SVG Version: 6.00 Build 0)  -->
<svg version="1.1" id="Layer_1" xmlns="http://www.w3.org/2000/svg" xmlns:xlink="http://www.w3.org/1999/xlink" x="0px" y="0px"
	 viewBox="0 0 512 512" style="enable-background:new 0 0 512 512;" xml:space="preserve">
<g>
	<g>
		<g>
			<g>
				<path d="M195.281,289.217h-16.35v25.951h4.914v-10.948h11.436c7.884,0,10.779-4.081,10.779-7.699
					C206.06,292.331,202.004,289.217,195.281,289.217z M193.606,301.217h-9.761v-9.004h9.963c4.056,0,7.186,1.06,7.186,4.35
					C200.994,300.072,198.016,301.217,193.606,301.217z"/>
				<path d="M280.246,314.992h-5.546l-7.413-10.527c-0.093-0.135-0.269-0.219-0.455-0.244h0.244c-0.076-0.017-0.177-0.017-0.244,0
					h-9.955v10.948h-4.906v-25.951h16.358c6.715,0,10.771,3.113,10.771,7.304c0,2.987-1.986,6.294-7.136,7.338L280.246,314.992z
					 M256.877,301.217h9.77c4.401,0,7.388-1.144,7.388-4.653c0-3.29-3.13-4.35-7.186-4.35h-9.971V301.217z"/>
				<path d="M222.477,289.217l-15.121,25.951h5.604l4.207-7.556h16.131l3.963,7.556h5.941l-14.557-25.951H222.477z M218.834,304.515
					l6.446-11.427h0.101l5.941,11.427H218.834z"/>
				<path d="M327.33,301.2l-10.005-1.7c-2.045-0.37-4.148-1.094-4.148-3.29c0-3.946,5.024-4.561,8.011-4.561
					c3.938,0,8.432,1.271,8.676,5.276h4.443c-0.194-2.844-1.405-8.263-13.666-8.263c-8.49,0-12.046,3.963-12.046,8.011
					c0,4.527,5.171,5.714,7.468,6.117l7.178,1.22c5.739,1.01,7.455,1.885,7.455,4.594c0,3.719-5.773,4.376-9.172,4.376
					c-4.493,0-9.677-1.372-9.677-6.084h-4.422c0,2.432,0.597,4.603,3.547,6.589c1.565,1.043,4.106,2.491,10.602,2.491
					c6,0,13.708-1.7,13.708-7.842C335.282,304.01,331.866,301.991,327.33,301.2z"/>
				<rect x="291.74" y="289.074" width="4.653" height="4.662"/>
				<rect x="291.774" y="296.479" width="4.645" height="18.546"/>
			</g>
		</g>
	</g>
	<g>
		<polygon points="275.818,271.967 333.885,271.967 333.885,264.882 285.782,264.882 285.782,242.179 321.911,242.179 
			321.911,235.001 285.782,235.001 285.782,214.09 333.885,214.09 333.885,207.014 275.818,207.014 		"/>
		<polygon points="305.995,196.537 298.135,205.356 322.803,196.537 		"/>
		<polygon points="431.37,264.882 431.37,207.014 422.299,207.014 422.299,271.967 481,271.967 481,264.882 		"/>
		<path d="M371.516,207.014l-33.019,64.953h11.15l8.457-16.796h39.608l8.516,16.796h11.049l-33.053-64.953H371.516z
			 M362.285,247.026l15.567-31.017l15.744,31.017H362.285z"/>
		<path d="M244.305,244.804c14.869-3.955,16.333-15.045,16.266-19c-0.909-11.579-8.718-18.79-22.762-18.79H196.88v64.953h9.323
			v-27.238h26.649l19.606,27.238h11.755C264.214,271.967,250.12,253.623,244.305,244.804z M236.538,237.046h-30.335v-22.333h31.395
			c7.22,0,11.293,3.374,12.748,7.649c0.968,2.954,0.336,6.807-1.254,9.433C246.468,236.137,241.495,237.046,236.538,237.046z"/>
		<path d="M140.795,196.024c-26.338,0-44.295,18.58-44.295,41.056c0,23.671,19.834,40.374,44.295,40.374
			c24.445,0,44.27-16.476,44.27-40.374C185.065,214.604,166.89,196.024,140.795,196.024z M140.476,269.375
			c-18.218,0-33.238-14.625-33.238-32.279c0-17.62,14.305-32.986,33.962-32.986c19.152,0,33.221,15.365,33.221,32.986
			C174.421,254.75,158.702,269.375,140.476,269.375z"/>
		<polygon points="73.006,230.003 79.73,230.003 91.956,207.014 82.119,207.014 		"/>
		<polygon points="40.088,264.882 40.088,207.014 31,207.014 31,271.967 89.701,271.967 89.701,264.882 		"/>
	</g>
</g>
</svg>
